<svg width="20" height="19" viewBox="0 0 20 19" fill="none" xmlns="http://www.w3.org/2000/svg">
<mask id="path-1-inside-1_7_193" fill="white">
<path d="M5.88333 2.22134C7.71242 -0.447517 11.6511 -0.447517 13.4802 2.22134V2.22134C14.079 3.09502 14.9606 3.73558 15.9766 4.03506V4.03506C19.08 4.9499 20.2971 8.69581 18.3241 11.2601V11.2601C17.6782 12.0995 17.3415 13.136 17.3706 14.1948V14.1948C17.4595 17.429 14.2731 19.7441 11.2246 18.6601V18.6601C10.2266 18.3052 9.13686 18.3052 8.13891 18.6601V18.6601C5.09043 19.7441 1.90398 17.429 1.99293 14.1948V14.1948C2.02205 13.136 1.68529 12.0995 1.0394 11.2601V11.2601C-0.933615 8.69581 0.283503 4.9499 3.38695 4.03506V4.03506C4.40291 3.73558 5.28456 3.09502 5.88333 2.22134V2.22134Z"/>
</mask>
<path d="M1.0394 11.2601L0.246846 11.8699L1.0394 11.2601ZM8.13891 18.6601L8.47395 19.6023L8.13891 18.6601ZM11.2246 18.6601L11.5597 17.7179L11.2246 18.6601ZM18.3241 11.2601L17.5316 10.6503L18.3241 11.2601ZM5.88333 2.22134L5.05846 1.65602L5.88333 2.22134ZM3.6697 4.99426C4.90628 4.62974 5.9794 3.85007 6.70821 2.78666L5.05846 1.65602C4.58972 2.33997 3.89953 2.84142 3.1042 3.07587L3.6697 4.99426ZM1.83195 10.6503C0.287399 8.64287 1.24021 5.71043 3.6697 4.99426L3.1042 3.07587C-0.673199 4.18938 -2.15463 8.74875 0.246846 11.8699L1.83195 10.6503ZM2.99255 14.2223C3.028 12.9336 2.6181 11.672 1.83195 10.6503L0.246846 11.8699C0.752474 12.5271 1.0161 13.3384 0.993309 14.1673L2.99255 14.2223ZM7.80386 17.7179C5.4174 18.5665 2.92292 16.7542 2.99255 14.2223L0.993309 14.1673C0.885038 18.1039 4.76347 20.9217 8.47395 19.6023L7.80386 17.7179ZM11.5597 17.7179C10.345 17.2859 9.01853 17.2859 7.80386 17.7179L8.47395 19.6023C9.25519 19.3245 10.1083 19.3245 10.8896 19.6023L11.5597 17.7179ZM16.371 14.2223C16.4406 16.7542 13.9461 18.5665 11.5597 17.7179L10.8896 19.6023C14.6 20.9217 18.4785 18.1039 18.3702 14.1673L16.371 14.2223ZM17.5316 10.6503C16.7454 11.672 16.3355 12.9336 16.371 14.2223L18.3702 14.1673C18.3474 13.3384 18.611 12.5271 19.1167 11.8699L17.5316 10.6503ZM15.6938 4.99426C18.1233 5.71043 19.0761 8.64287 17.5316 10.6503L19.1167 11.8699C21.5181 8.74875 20.0367 4.18938 16.2593 3.07587L15.6938 4.99426ZM12.6553 2.78666C13.3841 3.85007 14.4572 4.62974 15.6938 4.99426L16.2593 3.07587C15.464 2.84142 14.7738 2.33997 14.305 1.65602L12.6553 2.78666ZM14.305 1.65602C12.0788 -1.59241 7.28475 -1.59241 5.05846 1.65602L6.70821 2.78666C8.14008 0.697376 11.2234 0.697376 12.6553 2.78666L14.305 1.65602Z" fill="black" mask="url(#path-1-inside-1_7_193)"/>
</svg>
