<svg width="31" height="30" viewBox="0 0 31 30" fill="none" xmlns="http://www.w3.org/2000/svg">
<mask id="path-1-inside-1_7_193" fill="white">
<path fill-rule="evenodd" clip-rule="evenodd" d="M20.5616 3.37699C18.1784 -0.100439 13.0464 -0.100436 10.6632 3.377L9.76514 4.68732C8.98495 5.8257 7.83618 6.66033 6.51242 7.05055L4.98873 7.49971C0.945028 8.69172 -0.640837 13.5725 1.92994 16.9137L2.89862 18.1727C3.7402 19.2665 4.17899 20.6169 4.14105 21.9965L4.09738 23.5844C3.98147 27.7985 8.13333 30.815 12.1054 29.4026L13.6021 28.8703C14.9024 28.4079 16.3224 28.4079 17.6227 28.8703L19.1194 29.4026C23.0914 30.815 27.2433 27.7985 27.1274 23.5844L27.0837 21.9965C27.0458 20.6169 27.4846 19.2665 28.3262 18.1727L29.2948 16.9137C31.8656 13.5725 30.2797 8.69172 26.236 7.49971L24.7123 7.05055C23.3886 6.66033 22.2398 5.8257 21.4596 4.68732L20.5616 3.37699ZM15.6124 20.1555C17.8216 20.1555 19.6124 18.3646 19.6124 16.1555C19.6124 13.9464 17.8216 12.1555 15.6124 12.1555C13.4033 12.1555 11.6124 13.9464 11.6124 16.1555C11.6124 18.3646 13.4033 20.1555 15.6124 20.1555Z"/>
</mask>
<path fill-rule="evenodd" clip-rule="evenodd" d="M20.5616 3.37699C18.1784 -0.100439 13.0464 -0.100436 10.6632 3.377L9.76514 4.68732C8.98495 5.8257 7.83618 6.66033 6.51242 7.05055L4.98873 7.49971C0.945028 8.69172 -0.640837 13.5725 1.92994 16.9137L2.89862 18.1727C3.7402 19.2665 4.17899 20.6169 4.14105 21.9965L4.09738 23.5844C3.98147 27.7985 8.13333 30.815 12.1054 29.4026L13.6021 28.8703C14.9024 28.4079 16.3224 28.4079 17.6227 28.8703L19.1194 29.4026C23.0914 30.815 27.2433 27.7985 27.1274 23.5844L27.0837 21.9965C27.0458 20.6169 27.4846 19.2665 28.3262 18.1727L29.2948 16.9137C31.8656 13.5725 30.2797 8.69172 26.236 7.49971L24.7123 7.05055C23.3886 6.66033 22.2398 5.8257 21.4596 4.68732L20.5616 3.37699ZM15.6124 20.1555C17.8216 20.1555 19.6124 18.3646 19.6124 16.1555C19.6124 13.9464 17.8216 12.1555 15.6124 12.1555C13.4033 12.1555 11.6124 13.9464 11.6124 16.1555C11.6124 18.3646 13.4033 20.1555 15.6124 20.1555Z" fill="black"/>
<path d="M10.6632 3.377L9.83829 2.81168L9.83829 2.81168L10.6632 3.377ZM20.5616 3.37699L21.3865 2.81167L21.3865 2.81167L20.5616 3.37699ZM9.76514 4.68732L10.59 5.25264L10.59 5.25264L9.76514 4.68732ZM6.51242 7.05055L6.79517 8.00975L6.79517 8.00975L6.51242 7.05055ZM4.98873 7.49971L4.70597 6.54052L4.70597 6.54052L4.98873 7.49971ZM1.92994 16.9137L1.13739 17.5235L1.13739 17.5235L1.92994 16.9137ZM2.89862 18.1727L3.69118 17.5629L3.69118 17.5629L2.89862 18.1727ZM4.14105 21.9965L5.14067 22.024L5.14067 22.024L4.14105 21.9965ZM4.09738 23.5844L3.09775 23.5569L3.09775 23.5569L4.09738 23.5844ZM12.1054 29.4026L12.4404 30.3448L12.4404 30.3448L12.1054 29.4026ZM13.6021 28.8703L13.2671 27.9281L13.2671 27.9281L13.6021 28.8703ZM17.6227 28.8703L17.2876 29.8125L17.2876 29.8125L17.6227 28.8703ZM19.1194 29.4026L19.4544 28.4604L19.4544 28.4604L19.1194 29.4026ZM27.1274 23.5844L26.1278 23.6119L26.1278 23.6119L27.1274 23.5844ZM27.0837 21.9965L28.0833 21.969L28.0833 21.969L27.0837 21.9965ZM28.3262 18.1727L29.1187 18.7825L29.1187 18.7825L28.3262 18.1727ZM29.2948 16.9137L28.5023 16.3039L28.5023 16.3039L29.2948 16.9137ZM26.236 7.49971L26.5188 6.54052L26.5188 6.54052L26.236 7.49971ZM24.7123 7.05055L24.4296 8.00975L24.4296 8.00975L24.7123 7.05055ZM21.4596 4.68732L22.2845 4.122L22.2845 4.122L21.4596 4.68732ZM11.488 3.94232C13.4741 1.04446 17.7507 1.04445 19.7367 3.94232L21.3865 2.81167C18.606 -1.24533 12.6187 -1.24533 9.83829 2.81168L11.488 3.94232ZM10.59 5.25264L11.488 3.94232L9.83829 2.81168L8.94026 4.122L10.59 5.25264ZM6.79517 8.00975C8.33956 7.55449 9.67979 6.58075 10.59 5.25264L8.94026 4.122C8.29011 5.07065 7.3328 5.76618 6.22967 6.09136L6.79517 8.00975ZM5.27148 8.4589L6.79517 8.00975L6.22967 6.09136L4.70597 6.54052L5.27148 8.4589ZM2.72249 16.3039C0.580176 13.5196 1.90173 9.45225 5.27148 8.4589L4.70597 6.54052C-0.0116757 7.9312 -1.86185 13.6255 1.13739 17.5235L2.72249 16.3039ZM3.69118 17.5629L2.72249 16.3039L1.13739 17.5235L2.10607 18.7825L3.69118 17.5629ZM5.14067 22.024C5.18494 20.4145 4.67301 18.839 3.69118 17.5629L2.10607 18.7825C2.80739 19.694 3.17305 20.8194 3.14143 21.969L5.14067 22.024ZM5.097 23.6119L5.14067 22.024L3.14143 21.969L3.09775 23.5569L5.097 23.6119ZM11.7704 28.4604C8.4603 29.6374 5.00041 27.1237 5.097 23.6119L3.09775 23.5569C2.96253 28.4734 7.80637 31.9926 12.4404 30.3448L11.7704 28.4604ZM13.2671 27.9281L11.7703 28.4604L12.4404 30.3448L13.9371 29.8125L13.2671 27.9281ZM17.9577 27.9281C16.4407 27.3887 14.7841 27.3887 13.2671 27.9281L13.9371 29.8125C15.0207 29.4272 16.204 29.4272 17.2876 29.8125L17.9577 27.9281ZM19.4544 28.4604L17.9577 27.9281L17.2876 29.8125L18.7843 30.3448L19.4544 28.4604ZM26.1278 23.6119C26.2244 27.1237 22.7645 29.6374 19.4544 28.4604L18.7843 30.3448C23.4184 31.9926 28.2622 28.4734 28.127 23.5569L26.1278 23.6119ZM26.0841 22.024L26.1278 23.6119L28.127 23.5569L28.0833 21.969L26.0841 22.024ZM27.5336 17.5629C26.5518 18.839 26.0398 20.4145 26.0841 22.024L28.0833 21.969C28.0517 20.8194 28.4174 19.694 29.1187 18.7825L27.5336 17.5629ZM28.5023 16.3039L27.5336 17.5629L29.1187 18.7825L30.0874 17.5235L28.5023 16.3039ZM25.9533 8.4589C29.323 9.45224 30.6446 13.5196 28.5023 16.3039L30.0874 17.5235C33.0866 13.6255 31.2364 7.93119 26.5188 6.54052L25.9533 8.4589ZM24.4296 8.00975L25.9533 8.4589L26.5188 6.54052L24.9951 6.09136L24.4296 8.00975ZM20.6348 5.25264C21.545 6.58075 22.8852 7.55449 24.4296 8.00975L24.9951 6.09136C23.892 5.76618 22.9347 5.07065 22.2845 4.122L20.6348 5.25264ZM19.7367 3.94232L20.6348 5.25264L22.2845 4.122L21.3865 2.81167L19.7367 3.94232ZM18.6124 16.1555C18.6124 17.8123 17.2693 19.1555 15.6124 19.1555V21.1555C18.3738 21.1555 20.6124 18.9169 20.6124 16.1555H18.6124ZM15.6124 13.1555C17.2693 13.1555 18.6124 14.4986 18.6124 16.1555H20.6124C20.6124 13.3941 18.3738 11.1555 15.6124 11.1555V13.1555ZM12.6124 16.1555C12.6124 14.4986 13.9556 13.1555 15.6124 13.1555V11.1555C12.851 11.1555 10.6124 13.3941 10.6124 16.1555H12.6124ZM15.6124 19.1555C13.9556 19.1555 12.6124 17.8123 12.6124 16.1555H10.6124C10.6124 18.9169 12.851 21.1555 15.6124 21.1555V19.1555Z" fill="black" mask="url(#path-1-inside-1_7_193)"/>
</svg>
